<svg viewBox="0 0 41 60" fill="currentColor" xmlns="http://www.w3.org/2000/svg">
<path d="M17.8838 56.8182V59.9244C15.5978 59.9244 13.3792 59.4528 11.2898 58.5224C9.27277 57.6242 7.46126 56.3382 5.90644 54.7013C4.35111 53.0638 3.13016 51.1565 2.27702 49.0329C1.3934 46.8332 0.944946 44.4978 0.944946 42.091C0.944946 39.6842 1.3934 37.3483 2.27702 35.1486C2.72351 34.0376 3.27031 32.9856 3.91348 32.001C3.99707 32.0926 4.08165 32.1837 4.1677 32.2743C4.78875 32.9282 5.44569 33.5334 6.13607 34.0873C4.67713 36.4496 3.89529 39.2069 3.89529 42.091C3.89529 46.0245 5.3503 49.723 7.99233 52.5046C9.92332 54.5377 12.319 55.9029 14.9276 56.4904V38.0208C15.8973 38.1772 16.8822 38.2554 17.8779 38.2559V56.8182H17.8838Z" />
<path d="M31.2184 33.4833C30.7213 33.7701 30.2089 34.031 29.6828 34.2655C28.5056 34.7894 27.2881 35.1679 26.0401 35.3988V53.8306C25.0886 54.0936 24.0992 54.2297 23.0897 54.2297V35.6675H23.0887V32.5612C24.9986 32.5612 26.8504 32.161 28.5572 31.3979C29.5229 31.9467 30.4184 32.6461 31.2184 33.4833Z" />
<path d="M26.04 59.6558V59.6589H26.0223C26.0282 59.6578 26.0341 59.6568 26.04 59.6558Z" />
<path d="M17.8838 24.2571V27.3633C15.974 27.3633 14.1221 27.7635 12.4154 28.5266C11.4496 27.9778 10.5537 27.2784 9.75415 26.4408C10.2513 26.1545 10.7637 25.8936 11.2898 25.659C12.465 25.1356 13.6815 24.7577 14.9276 24.5268V6.09553C15.8786 5.8315 16.8684 5.69534 17.8779 5.69482V24.2571H17.8838Z" />
<path d="M40.0276 17.8333C40.0276 20.2402 39.5792 22.576 38.6956 24.7758C38.2491 25.8868 37.7023 26.9387 37.0591 27.9234C36.9755 27.8318 36.8909 27.7407 36.8049 27.6501C36.1833 26.9962 35.5269 26.3915 34.8365 25.8371C36.2955 23.4748 37.0773 20.7175 37.0773 17.8333C37.0773 13.8998 35.6223 10.2014 32.9803 7.41973C31.0483 5.38567 28.6506 4.01997 26.0401 3.4329V21.903C25.0704 21.7467 24.0855 21.6685 23.0897 21.6685V3.10622H23.0887V0C25.3748 0 27.5934 0.471628 29.6828 1.40194C31.6998 2.30016 33.5113 3.58614 35.0661 5.22312C36.6215 6.86061 37.8424 8.76784 38.6956 10.8915C39.5792 13.0912 40.0276 15.4265 40.0276 17.8333Z" />
<path d="M40.0276 42.0907C40.0276 44.4975 39.5792 46.8329 38.6956 49.0326C37.8424 51.1562 36.6215 53.0634 35.0661 54.7009C33.5113 56.3379 31.6998 57.6239 29.6828 58.5221C28.5056 59.046 27.2881 59.4245 26.0401 59.6554C26.0342 59.6564 26.0283 59.6574 26.0224 59.6585C25.0606 59.835 24.081 59.9241 23.0887 59.9241V56.8178H23.0897C24.0933 56.8178 25.0812 56.707 26.0401 56.4912C28.6506 55.9041 31.0483 54.5384 32.9803 52.5043C35.6223 49.7227 37.0773 46.0242 37.0773 42.0907C37.0773 38.1572 35.7472 34.7828 33.321 32.0478C33.2099 31.9225 33.0963 31.7987 32.9803 31.6766C32.3735 31.0382 31.721 30.4651 31.0306 29.9619C28.7136 28.2721 25.9678 27.3631 23.0887 27.3631V24.2568H23.0897C24.0879 24.2568 25.0728 24.3469 26.0401 24.5255C27.2881 24.7564 28.5056 25.1349 29.6828 25.6588C30.9858 26.2396 32.2033 26.9815 33.321 27.8761C33.9332 28.3653 34.5159 28.9006 35.0661 29.4805C35.2161 29.6384 35.3631 29.7989 35.5067 29.9619C36.8536 31.4876 37.9245 33.2297 38.6956 35.1483C39.5792 37.348 40.0276 39.6839 40.0276 42.0907Z" />
<path d="M7.99233 7.41973C5.3503 10.2014 3.89529 13.8998 3.89529 17.8334C3.89529 21.7669 5.2254 25.1413 7.65156 27.8763C7.76318 28.0016 7.87628 28.1253 7.99233 28.2475C8.59862 28.8858 9.25114 29.4589 9.94201 29.9621C12.259 31.6519 15.0053 32.561 17.8838 32.561V35.6672H17.8779C16.8802 35.6667 15.8948 35.5766 14.9276 35.3975C13.6816 35.1666 12.465 34.7887 11.2898 34.2653C9.98676 33.6844 8.76925 32.9425 7.65156 32.048C7.03887 31.5587 6.45667 31.0234 5.90644 30.4436C5.75646 30.2857 5.60943 30.1252 5.46536 29.9621C4.11902 28.4364 3.04805 26.6944 2.27702 24.7758C1.3934 22.576 0.944946 20.2402 0.944946 17.8334C0.944946 15.4265 1.3934 13.0912 2.27702 10.8915C3.13016 8.76784 4.35111 6.86061 5.90644 5.22312C7.46126 3.58614 9.27277 2.30016 11.2898 1.40194C13.3792 0.471628 15.5978 0 17.8838 0V3.10622H17.8779C16.8738 3.10674 15.8865 3.21753 14.9276 3.43393C12.319 4.02152 9.92332 5.38671 7.99233 7.41973Z" />
</svg>
