<svg viewBox="0 0 594 155" fill="currentColor" xmlns="http://www.w3.org/2000/svg">
<path d="M0.786011 152.172V3.45316H30.883V127.594H84.179V152.172H0.786011Z" />
<path d="M178.835 3.45316V28.0314H125.539V63.0241H175.7V87.6024H125.539V127.594H180.925V152.172H95.442V3.45316H178.835Z" />
<path d="M260.231 47.6107C260.231 44.8335 259.882 41.9868 259.186 39.0708C258.628 36.1547 257.653 33.5164 256.26 31.1557C254.866 28.6563 253.055 26.6428 250.825 25.1153C248.735 23.449 246.158 22.6159 243.092 22.6159C235.847 22.6159 230.622 26.6428 227.417 34.6967C224.212 42.7506 222.61 56.0811 222.61 74.6884C222.61 83.5754 222.889 91.6293 223.446 98.85C224.003 106.071 224.979 112.25 226.372 117.388C227.905 122.387 229.995 126.275 232.642 129.052C235.429 131.69 238.982 133.01 243.301 133.01C245.113 133.01 247.063 132.524 249.153 131.552C251.383 130.58 253.403 129.122 255.215 127.177C257.165 125.233 258.768 122.803 260.022 119.887C261.276 116.832 261.903 113.291 261.903 109.265V94.0594H242.047V71.9806H290.75V152.172H268.591V138.425H268.173C264.55 144.257 260.161 148.423 255.006 150.923C249.989 153.283 243.928 154.463 236.822 154.463C227.626 154.463 220.102 152.867 214.25 149.673C208.537 146.479 204.008 141.549 200.664 134.884C197.46 128.219 195.3 120.026 194.185 110.306C193.071 100.447 192.513 89.0604 192.513 76.1464C192.513 63.649 193.28 52.6791 194.812 43.2366C196.484 33.7941 199.271 25.9485 203.173 19.6998C207.074 13.3122 212.229 8.52156 218.639 5.32778C225.048 2.134 233.06 0.537109 242.674 0.537109C259.116 0.537109 270.96 4.63348 278.205 12.8262C285.45 20.8801 289.07 32.4749 289.07 47.6107H260.231Z" />
<path d="M308.02 152.172V3.45316H338.12V127.594H391.42V152.172H308.02Z" />
<path d="M486.07 3.45316V28.0314H432.78V63.0241H482.94V87.6024H432.78V127.594H488.16V152.172H402.68V3.45316H486.07Z" />
<path d="M498.33 3.44592H553.92C566.46 3.44592 576.22 6.6397 583.18 13.0273C590.15 19.276 593.64 28.8573 593.64 41.7713C593.64 51.7692 591.61 59.962 587.57 66.3495C583.53 72.5982 577.26 76.6252 568.76 78.4304V78.8469C576.29 79.9578 581.79 82.3879 585.27 86.1371C588.76 89.8863 590.92 95.9267 591.75 104.258C592.03 107.036 592.24 110.09 592.38 113.423C592.9 125.276 593.24 152.165 593.24 152.165H563.96C563.96 137.767 563.96 122.935 563.54 108.632C563.26 102.8 560.54 97.593 557.9 94.2604C555.25 90.9277 550.79 89.2614 544.52 89.2614H528.43V152.165H498.33V3.44592ZM528.43 68.4324H540.97C548.21 68.4324 553.78 66.7661 557.69 63.4335C561.59 59.962 563.54 54.1993 563.54 46.1454C563.54 32.3982 556.57 25.5247 542.64 25.5247H528.43V68.4324Z" />
</svg>
