<svg viewBox="0 0 254 30" fill="currentColor" xmlns="http://www.w3.org/2000/svg">
<path d="M11.0408 23.9865H0.169922V6.19141H10.825C12.8212 6.19141 14.1969 6.87184 15.0601 7.7445C15.8154 8.50829 16.247 9.4609 16.247 10.5513C16.247 12.1861 15.2759 13.6575 14.0081 14.1763C16.0582 14.6662 17.2181 16.4932 17.2181 18.6723C17.2181 19.9805 16.7865 21.3158 15.5996 22.4606C14.7364 23.2789 13.5765 23.9865 11.0408 23.9865ZM11.1487 16.0033H3.19112V21.2631H11.1487C11.985 21.2631 12.7942 20.9909 13.3337 20.4449C13.7923 19.9822 14.062 19.3 14.062 18.6468C14.062 17.9936 13.7923 17.4203 13.3607 16.9576C12.8212 16.386 12.0389 16.0033 11.1487 16.0033ZM10.5013 8.91655H3.19112V13.5486H10.5013C11.2297 13.5486 11.8771 13.3853 12.3626 12.8954C12.8212 12.4327 13.0909 11.7778 13.0909 11.1246C13.0909 10.5258 12.8482 9.97974 12.4705 9.59869C11.985 9.10878 11.3376 8.91826 10.5013 8.91826V8.91655Z" />
<path d="M27.9372 23.9865H24.916V6.19141H34.627C36.9738 6.19141 38.5923 6.84463 39.7253 8.07111C40.6155 9.02542 41.128 10.2791 41.128 11.6417C41.128 14.0402 39.5634 15.8655 37.2436 16.7382L41.4517 23.9865H37.9719L34.1954 17.1464H27.9372V23.9865ZM34.627 8.91655H27.9372V14.4213H35.1665C36.758 14.4213 38.1068 13.1676 38.1068 11.6417C38.1068 10.9613 37.837 10.3608 37.3785 9.87087C36.5422 8.99821 35.5711 8.91655 34.627 8.91655Z" />
<path d="M46.3398 23.9865L54.5133 6.19141H57.2647L65.4381 23.9865H62.1202L59.9892 19.1911H51.6L49.4959 23.9865H46.3398ZM55.7271 9.84365L52.679 16.7382H58.9102L55.889 9.84365H55.7271Z" />
<path d="M80.2693 23.9865H71.8262V6.19141H80.2693C83.4524 6.19141 85.2327 7.09128 86.7433 8.56273C88.3079 10.1975 89.1441 12.4871 89.1441 15.0762C89.1441 17.6653 88.227 20.1727 86.5545 21.8074C85.0439 23.17 83.4524 23.9882 80.2693 23.9882V23.9865ZM74.8474 21.2614H80.1345C82.3734 21.2614 83.1287 20.7442 84.1807 19.8716C85.3137 18.7268 85.988 16.9831 85.988 15.0762C85.988 13.1693 85.3946 11.5601 84.2886 10.4169C83.2905 9.48982 82.3464 8.91826 80.1345 8.91826H74.8474V21.2631V21.2614Z" />
<path d="M107.374 6.19141H110.935L103.706 15.7839V23.9865H100.684V15.7839L93.4551 6.19141H97.2855L102.33 13.0587L107.374 6.19141Z" />
<path d="M128.557 6.19141H131.578V21.2614H142.395V23.9865H128.557V6.19141Z" />
<path d="M158.511 13.3326V16.0577H151.74V21.2631H163.663V23.9882H148.719V6.19141H163.015V8.91655H151.74V13.3309H158.511V13.3326Z" />
<path d="M186.542 8.86204L184.438 10.769C182.954 9.2703 180.445 8.37042 178.368 8.37042C174.565 8.37042 171.894 11.4222 171.894 15.1016C171.894 18.5344 174.214 21.8056 178.665 21.8056C180.499 21.8056 182.657 21.2613 183.844 20.3614V16.7908H178.314V14.0657H186.596V21.8601C184.384 23.4948 181.255 24.5308 178.476 24.5308C172.892 24.5308 168.738 20.307 168.738 15.0744C168.738 9.84186 172.946 5.64697 178.341 5.64697C181.147 5.64697 184.141 6.79181 186.542 8.86204Z" />
<path d="M194.707 6.19141H197.728V21.2614H208.545V23.9865H194.707V6.19141Z" />
<path d="M224.661 13.3326V16.0577H217.89V21.2631H229.813V23.9882H214.869V6.19141H229.166V8.91655H217.89V13.3309H224.661V13.3326Z" />
<path d="M239.845 23.9865H236.824V6.19141H246.534C248.88 6.19141 250.499 6.84463 251.632 8.07111C252.522 9.02542 253.035 10.2791 253.035 11.6417C253.035 14.0402 251.47 15.8655 249.15 16.7382L253.358 23.9865H249.878L246.102 17.1464H239.845V23.9865ZM246.534 8.91655H239.845V14.4213H247.073C248.665 14.4213 250.013 13.1676 250.013 11.6417C250.013 10.9613 249.744 10.3608 249.285 9.87087C248.449 8.99821 247.478 8.91655 246.534 8.91655Z" />
</svg>
