<svg viewBox="0 0 1408 161" fill="currentColor" xmlns="http://www.w3.org/2000/svg">
<path d="M31.4214 73.456H45.2433C51.4344 73.456 56.4016 71.5843 60.145 67.8409C64.0324 64.0975 65.9761 58.2664 65.9761 50.3476C65.9761 42.5728 64.3204 36.6697 61.0089 32.6383C57.6974 28.607 52.1542 26.5913 44.3794 26.5913H31.4214V73.456ZM0.322266 3.69882H54.7458C62.6646 3.69882 69.2876 5.06661 74.6148 7.80219C80.0859 10.3938 84.4772 13.8493 87.7887 18.1686C91.1002 22.4879 93.4758 27.4551 94.9156 33.0703C96.3554 38.5414 97.0753 44.1566 97.0753 49.9157C97.0753 57.8344 95.8515 64.7454 93.4038 70.6485C91.1002 76.5515 87.7887 81.3748 83.4694 85.1182C79.294 88.8616 74.1828 91.6692 68.1358 93.5409C62.0887 95.4126 55.3937 96.3485 48.0509 96.3485H31.4214V157.899H0.322266V3.69882Z" />
<path d="M164.337 99.8039L149.435 30.4787H149.003L134.102 99.8039H164.337ZM168.44 3.69882L209.258 157.899H176.863L169.736 125.288H128.703L121.576 157.899H89.1807L129.998 3.69882H168.44Z" />
<path d="M284.126 49.4837C284.126 46.6042 283.766 43.6526 283.046 40.6291C282.47 37.6056 281.462 34.87 280.023 32.4224C278.583 29.8308 276.711 27.7431 274.407 26.1593C272.248 24.4316 269.584 23.5677 266.417 23.5677C258.93 23.5677 253.531 27.7431 250.219 36.0938C246.908 44.4445 245.252 58.2664 245.252 77.5594C245.252 86.774 245.54 95.1247 246.116 102.612C246.692 110.098 247.7 116.505 249.139 121.833C250.723 127.016 252.883 131.047 255.618 133.927C258.498 136.662 262.169 138.03 266.633 138.03C268.504 138.03 270.52 137.526 272.68 136.518C274.983 135.51 277.071 133.999 278.943 131.983C280.958 129.967 282.614 127.448 283.91 124.424C285.206 121.257 285.854 117.585 285.854 113.41V97.6443H265.337V74.7518H315.657V157.899H292.765V143.645H292.333C288.589 149.692 284.054 154.012 278.727 156.603C273.544 159.051 267.281 160.275 259.938 160.275C250.435 160.275 242.66 158.619 236.613 155.307C230.71 151.996 226.031 146.885 222.575 139.974C219.264 133.063 217.032 124.568 215.88 114.49C214.729 104.267 214.153 92.4611 214.153 79.0712C214.153 66.1132 214.945 54.7389 216.528 44.9484C218.256 35.158 221.136 27.0232 225.167 20.5442C229.198 13.9212 234.526 8.95401 241.149 5.64252C247.772 2.33104 256.05 0.675293 265.985 0.675293C282.974 0.675293 295.212 4.92264 302.699 13.4173C310.186 21.768 313.929 33.7902 313.929 49.4837H284.126Z" />
<path d="M417.521 3.69882V29.1829H362.449V65.4653H414.281V90.9493H362.449V132.415H419.68V157.899H331.35V3.69882H417.521Z" />
<path d="M514.42 3.69882L551.999 109.306H552.431V3.69882H580.938V157.899H545.52L507.51 49.9157H507.078V157.899H478.57V3.69882H514.42Z" />
<path d="M626.122 80.7989C626.122 91.1653 626.338 100.02 626.77 107.363C627.346 114.562 628.354 120.465 629.794 125.072C631.378 129.535 633.537 132.847 636.273 135.006C639.152 137.022 642.896 138.03 647.503 138.03C652.11 138.03 655.782 137.022 658.517 135.006C661.397 132.847 663.557 129.535 664.996 125.072C666.58 120.465 667.588 114.562 668.02 107.363C668.596 100.02 668.884 91.1653 668.884 80.7989C668.884 70.4325 668.596 61.6498 668.02 54.451C667.588 47.2521 666.58 41.349 664.996 36.7417C663.557 32.1344 661.397 28.8229 658.517 26.8072C655.782 24.6476 652.11 23.5677 647.503 23.5677C642.896 23.5677 639.152 24.6476 636.273 26.8072C633.537 28.8229 631.378 32.1344 629.794 36.7417C628.354 41.349 627.346 47.2521 626.77 54.451C626.338 61.6498 626.122 70.4325 626.122 80.7989ZM595.023 80.7989C595.023 69.1367 595.527 58.4104 596.535 48.6199C597.687 38.6854 600.062 30.1907 603.662 23.1358C607.405 16.0809 612.732 10.6098 619.643 6.72236C626.554 2.69098 635.841 0.675293 647.503 0.675293C659.165 0.675293 668.452 2.69098 675.363 6.72236C682.274 10.6098 687.529 16.0809 691.128 23.1358C694.872 30.1907 697.247 38.6854 698.255 48.6199C699.407 58.4104 699.983 69.1367 699.983 80.7989C699.983 92.605 699.407 103.403 698.255 113.194C697.247 122.984 694.872 131.407 691.128 138.462C687.529 145.517 682.274 150.916 675.363 154.659C668.452 158.403 659.165 160.275 647.503 160.275C635.841 160.275 626.554 158.403 619.643 154.659C612.732 150.916 607.405 145.517 603.662 138.462C600.062 131.407 597.687 122.984 596.535 113.194C595.527 103.403 595.023 92.605 595.023 80.7989Z" />
<path d="M804.222 3.69882V29.1829H770.531V157.899H739.432V29.1829H705.742V3.69882H804.222Z" />
<path d="M860.957 3.69882H947.128V29.1829H892.057V65.4653H943.889V90.9493H892.057V157.899H860.957V3.69882Z" />
<path d="M984.467 80.7989C984.467 91.1653 984.683 100.02 985.115 107.363C985.69 114.562 986.698 120.465 988.138 125.072C989.722 129.535 991.881 132.847 994.617 135.006C997.497 137.022 1001.24 138.03 1005.85 138.03C1010.45 138.03 1014.13 137.022 1016.86 135.006C1019.74 132.847 1021.9 129.535 1023.34 125.072C1024.92 120.465 1025.93 114.562 1026.36 107.363C1026.94 100.02 1027.23 91.1653 1027.23 80.7989C1027.23 70.4325 1026.94 61.6498 1026.36 54.451C1025.93 47.2521 1024.92 41.349 1023.34 36.7417C1021.9 32.1344 1019.74 28.8229 1016.86 26.8072C1014.13 24.6476 1010.45 23.5677 1005.85 23.5677C1001.24 23.5677 997.497 24.6476 994.617 26.8072C991.881 28.8229 989.722 32.1344 988.138 36.7417C986.698 41.349 985.69 47.2521 985.115 54.451C984.683 61.6498 984.467 70.4325 984.467 80.7989ZM953.367 80.7989C953.367 69.1367 953.871 58.4104 954.879 48.6199C956.031 38.6854 958.407 30.1907 962.006 23.1358C965.75 16.0809 971.077 10.6098 977.988 6.72236C984.899 2.69098 994.185 0.675293 1005.85 0.675293C1017.51 0.675293 1026.8 2.69098 1033.71 6.72236C1040.62 10.6098 1045.87 16.0809 1049.47 23.1358C1053.22 30.1907 1055.59 38.6854 1056.6 48.6199C1057.75 58.4104 1058.33 69.1367 1058.33 80.7989C1058.33 92.605 1057.75 103.403 1056.6 113.194C1055.59 122.984 1053.22 131.407 1049.47 138.462C1045.87 145.517 1040.62 150.916 1033.71 154.659C1026.8 158.403 1017.51 160.275 1005.85 160.275C994.185 160.275 984.899 158.403 977.988 154.659C971.077 150.916 965.75 145.517 962.006 138.462C958.407 131.407 956.031 122.984 954.879 113.194C953.871 103.403 953.367 92.605 953.367 80.7989Z" />
<path d="M1101.45 3.69882V111.25C1101.45 115.138 1101.66 118.737 1102.1 122.048C1102.67 125.216 1103.61 128.024 1104.9 130.471C1106.34 132.775 1108.21 134.647 1110.52 136.086C1112.97 137.382 1115.99 138.03 1119.59 138.03C1123.33 138.03 1126.36 137.382 1128.66 136.086C1130.96 134.647 1132.76 132.775 1134.06 130.471C1135.5 128.024 1136.43 125.216 1136.87 122.048C1137.44 118.737 1137.73 115.138 1137.73 111.25V3.69882H1168.83V111.25C1168.83 121.041 1167.46 129.175 1164.73 135.654C1161.99 141.989 1158.32 147.029 1153.71 150.772C1149.1 154.515 1143.85 157.035 1137.95 158.331C1132.04 159.627 1125.92 160.275 1119.59 160.275C1113.25 160.275 1107.14 159.699 1101.23 158.547C1095.33 157.395 1090.07 155.091 1085.47 151.636C1080.86 148.036 1077.19 142.997 1074.45 136.518C1071.72 130.039 1070.35 121.617 1070.35 111.25V3.69882H1101.45Z" />
<path d="M1220.03 3.69882L1257.61 109.306H1258.04V3.69882H1286.55V157.899H1251.13L1213.12 49.9157H1212.69V157.899H1184.18V3.69882H1220.03Z" />
<path d="M1336.49 135.006H1350.31C1355.78 135.006 1360.17 134.071 1363.48 132.199C1366.79 130.327 1369.38 127.232 1371.26 122.912C1373.27 118.593 1374.57 112.906 1375.14 105.851C1375.86 98.7961 1376.22 90.0135 1376.22 79.5031C1376.22 70.7204 1375.94 63.0176 1375.36 56.3947C1374.78 49.7717 1373.56 44.3005 1371.69 39.9812C1369.96 35.5179 1367.3 32.2064 1363.7 30.0468C1360.24 27.7431 1355.56 26.5913 1349.66 26.5913H1336.49V135.006ZM1305.39 3.69882H1356.35C1367.15 3.69882 1375.86 5.49855 1382.49 9.09799C1389.11 12.5535 1394.22 17.5927 1397.82 24.2157C1401.56 30.6946 1404.08 38.5414 1405.38 47.756C1406.67 56.9706 1407.32 67.265 1407.32 78.6392C1407.32 92.1731 1406.46 103.979 1404.73 114.058C1403.15 123.992 1400.34 132.199 1396.31 138.678C1392.28 145.157 1386.88 149.98 1380.11 153.148C1373.34 156.315 1364.78 157.899 1354.41 157.899H1305.39V3.69882Z" />
</svg>
