<svg viewBox="0 0 78 66" fill="currentColor" xmlns="http://www.w3.org/2000/svg">
<path d="M34.5326 50.2508C35.1375 51.4186 35.8265 52.5198 36.5659 53.5208C36.65 53.6376 36.734 53.7377 36.818 53.8544H62.832C62.916 53.7377 63 53.6376 63.0841 53.5208C63.8235 52.5198 64.5125 51.4186 65.1174 50.2508H34.5326Z" />
<path d="M15.2741 12.4626C14.5347 13.4636 13.8457 14.5647 13.2407 15.7326H43.8256C43.2207 14.5647 42.5317 13.4636 41.7923 12.4626C41.7082 12.3458 41.6242 12.2457 41.5402 12.129H15.5262C15.4422 12.2457 15.3582 12.3625 15.2741 12.4626Z" />
<path d="M42.33 55.456C38.3136 60.4444 33.4402 63.1805 28.5332 63.1805C23.6262 63.1805 18.7527 60.4444 14.7364 55.456H10.1486C10.3839 55.773 10.6192 56.09 10.8544 56.407C15.6102 62.5799 21.8953 65.9833 28.5332 65.9833C35.1711 65.9833 41.4562 62.5799 46.2119 56.407C46.4472 56.09 46.6825 55.773 46.9177 55.456H42.33Z" />
<path d="M10.72 48.6492C8.83786 44.1279 7.84637 38.7725 7.84637 33C7.84637 24.4914 10.031 16.8671 13.9802 11.5283C18.131 5.90598 23.3069 2.81953 28.5332 2.81953C33.7595 2.81953 38.9354 5.90598 43.0862 11.5283C47.0354 16.8671 49.22 24.4914 49.22 33C49.22 38.7725 48.2117 44.1279 46.3464 48.6492H50.6652C52.6314 43.8944 53.6565 38.5556 53.6565 33C53.6565 24.1411 51.0181 15.816 46.2119 9.59304C41.4562 3.42014 35.1711 0.0166998 28.5332 0.0166998C21.8953 0.0166998 15.6102 3.42014 10.8544 9.59304C6.04825 15.8327 3.40988 24.1411 3.40988 33C3.40988 38.5556 4.45179 43.8944 6.40115 48.6492H10.72Z" />
<path d="M10.72 48.6492C8.83786 44.1279 7.84637 38.7725 7.84637 33C7.84637 24.4914 10.031 16.8671 13.9802 11.5283C18.131 5.90598 23.3069 2.81953 28.5332 2.81953C33.7595 2.81953 38.9354 5.90598 43.0862 11.5283C47.0354 16.8671 49.22 24.4914 49.22 33C49.22 38.7725 48.2117 44.1279 46.3464 48.6492H50.6652C52.6314 43.8944 53.6565 38.5556 53.6565 33C53.6565 24.1411 51.0181 15.816 46.2119 9.59304C41.4562 3.42014 35.1711 0.0166998 28.5332 0.0166998C21.8953 0.0166998 15.6102 3.42014 10.8544 9.59304C6.04825 15.8327 3.40988 24.1411 3.40988 33C3.40988 38.5556 4.45179 43.8944 6.40115 48.6492H10.72Z" />
<path d="M10.72 48.6492C8.83786 44.1279 7.84637 38.7725 7.84637 33C7.84637 24.4914 10.031 16.8671 13.9802 11.5283C18.131 5.90598 23.3069 2.81953 28.5332 2.81953C33.7595 2.81953 38.9354 5.90598 43.0862 11.5283C47.0354 16.8671 49.22 24.4914 49.22 33C49.22 38.7725 48.2117 44.1279 46.3464 48.6492H50.6652C52.6314 43.8944 53.6565 38.5556 53.6565 33C53.6565 24.1411 51.0181 15.816 46.2119 9.59304C41.4562 3.42014 35.1711 0.0166998 28.5332 0.0166998C21.8953 0.0166998 15.6102 3.42014 10.8544 9.59304C6.04825 15.8327 3.40988 24.1411 3.40988 33C3.40988 38.5556 4.45179 43.8944 6.40115 48.6492H10.72Z" />
<path d="M71.957 17.3508H67.6382C69.5203 21.8721 70.5118 27.2275 70.5118 33C70.5118 41.5086 68.3272 49.133 64.378 54.4884C60.2104 60.1107 55.0513 63.1972 49.825 63.1972C47.6908 63.1972 45.5566 62.68 43.5064 61.679C42.6157 62.4464 41.7082 63.1471 40.7672 63.7811C43.624 65.2326 46.6825 66 49.825 66C56.4797 66 62.748 62.5966 67.5037 56.4237C72.3099 50.184 74.9483 41.8756 74.9483 33.0167C74.9483 27.4444 73.9064 22.089 71.957 17.3508Z" />
<path d="M35.272 54.4717C31.3228 49.133 29.1382 41.5086 29.1382 32.9833C29.1382 27.2108 30.1465 21.8554 32.0118 17.3342H27.693C25.7268 22.089 24.6849 27.4277 24.6849 32.9833C24.6849 41.8423 27.3233 50.1673 32.1295 56.3903C33.0705 57.6082 34.062 58.7093 35.1039 59.6936C36.0954 59.1264 37.0533 58.4424 37.9944 57.6249C37.0533 56.7073 36.1458 55.6562 35.272 54.4717Z" />
<path d="M32.1463 9.57634C31.911 9.89333 31.6757 10.2103 31.4404 10.5273H36.0282C36.6668 9.74318 37.3222 9.0091 37.9944 8.32508C37.0533 7.50759 36.0954 6.82356 35.1039 6.25632C34.062 7.25733 33.0705 8.37513 32.1463 9.57634Z" />
<path d="M67.5037 9.57634C62.748 3.40344 56.4629 0 49.825 0C46.6825 0 43.624 0.767442 40.7672 2.21891C41.7082 2.85288 42.6157 3.55359 43.5064 4.32103C45.5566 3.32002 47.6908 2.80283 49.825 2.80283C54.732 2.80283 59.6054 5.53893 63.6218 10.5273H68.2095C67.9743 10.2103 67.7558 9.89333 67.5037 9.57634Z" />
<path d="M5.34245 15.7492C5.89702 14.4979 6.5188 13.2967 7.19099 12.1456H1.52774C1.22526 13.3301 0.939573 14.5313 0.6875 15.7492H5.34245Z" />
<path d="M76.8304 12.1456H49.8754C50.5476 13.2967 51.1694 14.4979 51.7239 15.7492H77.6539C77.4018 14.5313 77.1329 13.3134 76.8304 12.1456Z" />
<path d="M1.54455 53.8544H28.4996C27.8274 52.7033 27.2056 51.5021 26.651 50.2508H0.704301C0.956374 51.4687 1.24206 52.6699 1.54455 53.8544Z" />
<path d="M73.0325 50.2508C72.478 51.5021 71.8562 52.7033 71.184 53.8544H76.8473C77.1497 52.6699 77.4354 51.4687 77.6875 50.2508H73.0325Z" />
</svg>
