<svg viewBox="0 0 348 151" fill="currentColor" xmlns="http://www.w3.org/2000/svg">
<path d="M13.6035 30.6522H19.4247C22.0321 30.6522 24.1241 29.8639 25.7007 28.2873C27.3379 26.7108 28.1565 24.2549 28.1565 20.9199C28.1565 17.6455 27.4592 15.1593 26.0645 13.4615C24.6698 11.7636 22.3353 10.9147 19.0609 10.9147H13.6035V30.6522ZM0.505859 1.27338H23.4268C26.7618 1.27338 29.5512 1.84944 31.7947 3.00155C34.099 4.09302 35.9484 5.54832 37.3431 7.36744C38.7377 9.18656 39.7382 11.2786 40.3446 13.6434C40.951 15.9476 41.2542 18.3125 41.2542 20.738C41.2542 24.073 40.7387 26.9836 39.7079 29.4698C38.7377 31.9559 37.3431 33.9872 35.5239 35.5638C33.7655 37.1404 31.6128 38.3228 29.0661 39.1111C26.5193 39.8994 23.6996 40.2935 20.6071 40.2935H13.6035V66.216H0.505859V1.27338Z" />
<path d="M69.582 41.7488L63.306 12.5519H63.1241L56.8481 41.7488H69.582ZM71.3102 1.27338L88.5008 66.216H74.8574L71.8559 52.4816H54.5742L51.5727 66.216H37.9293L55.12 1.27338H71.3102Z" />
<path d="M120.032 20.5561C120.032 19.3433 119.88 18.1003 119.577 16.8269C119.335 15.5535 118.91 14.4014 118.304 13.3705C117.698 12.2791 116.909 11.3998 115.939 10.7328C115.029 10.0052 113.908 9.64134 112.574 9.64134C109.421 9.64134 107.147 11.3998 105.752 14.9168C104.357 18.4338 103.66 24.2549 103.66 32.3804C103.66 36.2611 103.781 39.7781 104.024 42.9313C104.266 46.0844 104.691 48.7828 105.297 51.0263C105.964 53.2093 106.874 54.9071 108.026 56.1199C109.239 57.272 110.785 57.848 112.665 57.848C113.453 57.848 114.302 57.6358 115.211 57.2114C116.182 56.7869 117.061 56.1502 117.849 55.3013C118.698 54.4524 119.395 53.3912 119.941 52.1178C120.487 50.7838 120.76 49.2375 120.76 47.4791V40.8393H112.119V31.1979H133.312V66.216H123.67V60.2129H123.488C121.912 62.7597 120.002 64.5788 117.758 65.6703C115.575 66.7011 112.937 67.2165 109.845 67.2165C105.843 67.2165 102.568 66.5192 100.022 65.1245C97.5356 63.7299 95.5649 61.5772 94.1096 58.6667C92.7149 55.7561 91.775 52.1784 91.2899 47.9338C90.8048 43.6286 90.5623 38.6563 90.5623 33.017C90.5623 27.5597 90.8958 22.7693 91.5628 18.646C92.2904 14.5227 93.5032 11.0966 95.201 8.36796C96.8989 5.57864 99.1425 3.48665 101.932 2.09199C104.721 0.69733 108.208 0 112.392 0C119.547 0 124.701 1.7888 127.854 5.36641C131.007 8.88338 132.584 13.9466 132.584 20.5561H120.032Z" />
<path d="M176.212 1.27338V12.0062H153.019V27.2868H174.848V38.0196H153.019V55.4832H177.122V66.216H139.921V1.27338H176.212Z" />
<path d="M225.452 1.27338L241.279 45.7509H241.46V1.27338H253.467V66.216H238.55L222.542 20.738H222.36V66.216H210.354V1.27338H225.452Z" />
<path d="M272.496 33.7447C272.496 38.1106 272.587 41.8398 272.769 44.9323C273.012 47.9642 273.436 50.4503 274.043 52.3907C274.71 54.2704 275.619 55.6651 276.771 56.5747C277.984 57.4236 279.561 57.848 281.501 57.848C283.441 57.848 284.988 57.4236 286.14 56.5747C287.353 55.6651 288.262 54.2704 288.868 52.3907C289.535 50.4503 289.96 47.9642 290.142 44.9323C290.384 41.8398 290.506 38.1106 290.506 33.7447C290.506 29.3788 290.384 25.6799 290.142 22.6481C289.96 19.6162 289.535 17.1301 288.868 15.1897C288.262 13.2493 287.353 11.8546 286.14 11.0057C284.988 10.0961 283.441 9.64134 281.501 9.64134C279.561 9.64134 277.984 10.0961 276.771 11.0057C275.619 11.8546 274.71 13.2493 274.043 15.1897C273.436 17.1301 273.012 19.6162 272.769 22.6481C272.587 25.6799 272.496 29.3788 272.496 33.7447ZM259.399 33.7447C259.399 28.8331 259.611 24.3156 260.035 20.1922C260.52 16.0083 261.521 12.4307 263.037 9.45943C264.614 6.4882 266.857 4.18398 269.768 2.54677C272.678 0.848923 276.589 0 281.501 0C286.413 0 290.324 0.848923 293.234 2.54677C296.145 4.18398 298.358 6.4882 299.874 9.45943C301.451 12.4307 302.451 16.0083 302.876 20.1922C303.361 24.3156 303.603 28.8331 303.603 33.7447C303.603 38.717 303.361 43.2648 302.876 47.3881C302.451 51.5114 301.451 55.0587 299.874 58.03C298.358 61.0012 296.145 63.2751 293.234 64.8517C290.324 66.4282 286.413 67.2165 281.501 67.2165C276.589 67.2165 272.678 66.4282 269.768 64.8517C266.857 63.2751 264.614 61.0012 263.037 58.03C261.521 55.0587 260.52 51.5114 260.035 47.3881C259.611 43.2648 259.399 38.717 259.399 33.7447Z" />
<path d="M347.505 1.27338V12.0062H333.315V66.216H320.218V12.0062H306.029V1.27338H347.505Z" />
<path d="M62.0664 84.5214H98.3578V95.2542H75.1641V110.535H96.9935V121.268H75.1641V149.464H62.0664V84.5214Z" />
<path d="M114.083 116.993C114.083 121.359 114.174 125.088 114.356 128.18C114.599 131.212 115.023 133.698 115.63 135.639C116.297 137.518 117.206 138.913 118.358 139.823C119.571 140.672 121.148 141.096 123.088 141.096C125.028 141.096 126.575 140.672 127.727 139.823C128.939 138.913 129.849 137.518 130.455 135.639C131.122 133.698 131.547 131.212 131.729 128.18C131.971 125.088 132.093 121.359 132.093 116.993C132.093 112.627 131.971 108.928 131.729 105.896C131.547 102.864 131.122 100.378 130.455 98.4377C129.849 96.4973 128.939 95.1027 127.727 94.2537C126.575 93.3442 125.028 92.8894 123.088 92.8894C121.148 92.8894 119.571 93.3442 118.358 94.2537C117.206 95.1027 116.297 96.4973 115.63 98.4377C115.023 100.378 114.599 102.864 114.356 105.896C114.174 108.928 114.083 112.627 114.083 116.993ZM100.986 116.993C100.986 112.081 101.198 107.564 101.622 103.44C102.107 99.2563 103.108 95.6787 104.624 92.7075C106.2 89.7362 108.444 87.432 111.355 85.7948C114.265 84.097 118.176 83.248 123.088 83.248C128 83.248 131.911 84.097 134.821 85.7948C137.732 87.432 139.945 89.7362 141.461 92.7075C143.038 95.6787 144.038 99.2563 144.463 103.44C144.948 107.564 145.19 112.081 145.19 116.993C145.19 121.965 144.948 126.513 144.463 130.636C144.038 134.759 143.038 138.307 141.461 141.278C139.945 144.249 137.732 146.523 134.821 148.1C131.911 149.676 128 150.465 123.088 150.465C118.176 150.465 114.265 149.676 111.355 148.1C108.444 146.523 106.2 144.249 104.624 141.278C103.108 138.307 102.107 134.759 101.622 130.636C101.198 126.513 100.986 121.965 100.986 116.993Z" />
<path d="M163.351 84.5214V129.818C163.351 131.455 163.442 132.971 163.624 134.365C163.866 135.699 164.26 136.882 164.806 137.913C165.413 138.883 166.201 139.671 167.171 140.277C168.202 140.823 169.475 141.096 170.991 141.096C172.568 141.096 173.841 140.823 174.811 140.277C175.782 139.671 176.54 138.883 177.085 137.913C177.692 136.882 178.086 135.699 178.268 134.365C178.51 132.971 178.632 131.455 178.632 129.818V84.5214H191.729V129.818C191.729 133.941 191.153 137.367 190.001 140.096C188.849 142.764 187.303 144.886 185.362 146.463C183.422 148.039 181.209 149.1 178.722 149.646C176.236 150.192 173.659 150.465 170.991 150.465C168.323 150.465 165.746 150.222 163.26 149.737C160.774 149.252 158.561 148.282 156.62 146.826C154.68 145.31 153.133 143.188 151.981 140.459C150.829 137.731 150.253 134.183 150.253 129.818V84.5214H163.351Z" />
<path d="M213.294 84.5214L229.12 128.999H229.302V84.5214H241.308V149.464H226.391L210.383 103.986H210.201V149.464H198.195V84.5214H213.294Z" />
<path d="M262.339 139.823H268.16C270.464 139.823 272.314 139.429 273.708 138.64C275.103 137.852 276.194 136.548 276.983 134.729C277.832 132.91 278.377 130.515 278.62 127.544C278.923 124.572 279.075 120.874 279.075 116.447C279.075 112.748 278.953 109.504 278.711 106.715C278.468 103.925 277.953 101.621 277.165 99.8021C276.437 97.9223 275.315 96.5276 273.799 95.6181C272.344 94.6479 270.373 94.1628 267.887 94.1628H262.339V139.823ZM249.241 84.5214H270.707C275.255 84.5214 278.923 85.2794 281.712 86.7953C284.502 88.2506 286.654 90.3729 288.17 93.1623C289.747 95.8909 290.808 99.1957 291.354 103.076C291.9 106.957 292.172 111.293 292.172 116.083C292.172 121.783 291.809 126.755 291.081 131C290.414 135.184 289.231 138.64 287.534 141.369C285.836 144.098 283.562 146.129 280.712 147.463C277.862 148.797 274.254 149.464 269.888 149.464H249.241V84.5214Z" />
</svg>
