<svg viewBox="0 0 550 149" fill="currentColor" xmlns="http://www.w3.org/2000/svg">
<path d="M30.3655 126.614H42.0324C49.2548 126.614 55.0882 125.022 59.5328 121.839C63.9773 118.655 66.1995 112.772 66.1995 104.19C66.1995 99.899 65.5745 96.369 64.3245 93.6006C63.2134 90.6937 61.6161 88.4097 59.5328 86.7487C57.5883 84.9492 55.2271 83.7034 52.4493 83.0113C49.6714 82.3192 46.6158 81.9731 43.2824 81.9731H30.3655V126.614ZM30.3655 61.2097H38.9074C47.2409 61.2097 53.2826 59.7563 57.0327 56.8494C60.9217 53.8041 62.8662 48.7517 62.8662 41.6922C62.8662 34.6326 61.13 29.6494 57.6577 26.7425C54.1854 23.8357 48.6992 22.3822 41.1991 22.3822H30.3655V61.2097ZM0.36499 0.373047H50.5743C56.6855 0.373047 62.3106 0.995947 67.4496 2.24175C72.7274 3.48755 77.2414 5.56389 80.9915 8.4708C84.7415 11.3776 87.6583 15.2535 89.7416 20.0983C91.825 24.943 92.8667 30.8952 92.8667 37.9548C92.8667 45.9833 90.9916 52.9044 87.2416 58.7181C83.4915 64.3934 77.8664 68.2693 70.3663 70.3456V70.7609C78.6998 71.8683 85.2971 75.398 90.1583 81.3502C95.0195 87.3024 97.4501 95.2617 97.4501 105.228C97.4501 111.042 96.6862 116.579 95.1584 121.839C93.6306 127.099 90.9916 131.736 87.2416 135.75C83.6304 139.626 78.8387 142.741 72.8663 145.094C67.0329 147.447 59.7411 148.624 50.9909 148.624H0.36499V0.373047Z" />
<path d="M111.281 0.373047H166.699C179.199 0.373047 188.922 3.55677 195.866 9.9242C202.811 16.1532 206.283 25.7044 206.283 38.5777C206.283 48.5441 204.269 56.711 200.241 63.0784C196.213 69.3074 189.963 73.3217 181.491 75.1212V75.5365C188.991 76.6438 194.477 79.0662 197.949 82.8037C201.422 86.5411 203.575 92.5624 204.408 100.868C204.686 103.636 204.894 106.682 205.033 110.004C205.548 121.819 205.887 148.624 205.887 148.624H176.699C176.699 134.271 176.7 119.486 176.282 105.228C176.005 99.414 173.296 94.2235 170.657 90.9014C168.018 87.5792 163.574 85.9182 157.324 85.9182H141.282V148.624H111.281V0.373047ZM141.282 65.1548H153.782C161.004 65.1548 166.56 63.4937 170.449 60.1716C174.338 56.711 176.282 50.9665 176.282 42.938C176.282 29.2341 169.338 22.3822 155.449 22.3822H141.282V65.1548Z" />
<path d="M287.048 92.7701L272.673 26.1196H272.256L257.881 92.7701H287.048ZM291.006 0.373047L330.382 148.624H299.131L292.256 117.271H252.672L245.797 148.624H214.546L253.922 0.373047H291.006Z" />
<path d="M370.104 126.614H383.438C388.716 126.614 392.952 125.715 396.147 123.915C399.341 122.116 401.841 119.14 403.647 114.987C405.591 110.834 406.841 105.367 407.397 98.584C408.091 91.8011 408.438 83.3573 408.438 73.2525C408.438 64.8087 408.161 57.4031 407.605 51.0357C407.049 44.6682 405.869 39.4082 404.063 35.2555C402.397 30.9644 399.827 27.7807 396.355 25.7044C393.021 23.4896 388.507 22.3822 382.813 22.3822H370.104V126.614ZM340.104 0.373047H389.271C399.688 0.373047 408.091 2.10333 414.48 5.5639C420.869 8.886 425.8 13.7308 429.272 20.0983C432.883 26.3273 435.314 33.8713 436.564 42.7303C437.814 51.5894 438.439 61.4866 438.439 72.422C438.439 85.4337 437.606 96.7843 435.939 106.474C434.411 116.025 431.703 123.915 427.814 130.144C423.925 136.373 418.716 141.01 412.188 144.056C405.66 147.101 397.396 148.624 387.396 148.624H340.104V0.373047Z" />
<path d="M476.083 0.373047L495.667 57.68H496.083L516.917 0.373047H549.418L510.875 90.2785V148.624H480.875V90.2785L442.332 0.373047H476.083Z" />
</svg>
