<svg width="20" height="21" viewBox="0 0 20 21" fill="none" xmlns="http://www.w3.org/2000/svg">
<g id="Social icon" clip-path="url(#clip0_1185_5911)">
<path id="Vector" d="M20 10.4727C20 4.9498 15.5229 0.472656 10 0.472656C4.47715 0.472656 0 4.9498 0 10.4727C0 15.4639 3.65684 19.601 8.4375 20.3512V13.3633H5.89844V10.4727H8.4375V8.26953C8.4375 5.76328 9.93047 4.37891 12.2146 4.37891C13.3084 4.37891 14.4531 4.57422 14.4531 4.57422V7.03516H13.1922C11.95 7.03516 11.5625 7.80605 11.5625 8.59766V10.4727H14.3359L13.8926 13.3633H11.5625V20.3512C16.3432 19.601 20 15.4639 20 10.4727Z" fill="currentColor"/>
</g>
<defs>
<clipPath id="clip0_1185_5911">
<rect width="20" height="20" fill="currentColor" transform="translate(0 0.472656)"/>
</clipPath>
</defs>
</svg>
