<svg width="20" height="21" viewBox="0 0 20 21" fill="none" xmlns="http://www.w3.org/2000/svg">
<g id="Group">
<path id="Vector" d="M10 2.27344C12.6719 2.27344 12.9883 2.28516 14.0391 2.33203C15.0156 2.375 15.543 2.53906 15.8945 2.67578C16.3594 2.85547 16.6953 3.07422 17.043 3.42187C17.3945 3.77344 17.6094 4.10547 17.7891 4.57031C17.9258 4.92187 18.0898 5.45312 18.1328 6.42578C18.1797 7.48047 18.1914 7.79687 18.1914 10.4648C18.1914 13.1367 18.1797 13.4531 18.1328 14.5039C18.0898 15.4805 17.9258 16.0078 17.7891 16.3594C17.6094 16.8242 17.3906 17.1602 17.043 17.5078C16.6914 17.8594 16.3594 18.0742 15.8945 18.2539C15.543 18.3906 15.0117 18.5547 14.0391 18.5977C12.9844 18.6445 12.668 18.6562 10 18.6562C7.32812 18.6562 7.01172 18.6445 5.96094 18.5977C4.98438 18.5547 4.45703 18.3906 4.10547 18.2539C3.64062 18.0742 3.30469 17.8555 2.95703 17.5078C2.60547 17.1562 2.39062 16.8242 2.21094 16.3594C2.07422 16.0078 1.91016 15.4766 1.86719 14.5039C1.82031 13.4492 1.80859 13.1328 1.80859 10.4648C1.80859 7.79297 1.82031 7.47656 1.86719 6.42578C1.91016 5.44922 2.07422 4.92187 2.21094 4.57031C2.39062 4.10547 2.60937 3.76953 2.95703 3.42187C3.30859 3.07031 3.64062 2.85547 4.10547 2.67578C4.45703 2.53906 4.98828 2.375 5.96094 2.33203C7.01172 2.28516 7.32812 2.27344 10 2.27344ZM10 0.472656C7.28516 0.472656 6.94531 0.484375 5.87891 0.53125C4.81641 0.578125 4.08594 0.75 3.45312 0.996094C2.79297 1.25391 2.23438 1.59375 1.67969 2.15234C1.12109 2.70703 0.78125 3.26562 0.523437 3.92188C0.277344 4.55859 0.105469 5.28516 0.0585938 6.34766C0.0117188 7.41797 0 7.75781 0 10.4727C0 13.1875 0.0117188 13.5273 0.0585938 14.5937C0.105469 15.6562 0.277344 16.3867 0.523437 17.0195C0.78125 17.6797 1.12109 18.2383 1.67969 18.793C2.23438 19.3477 2.79297 19.6914 3.44922 19.9453C4.08594 20.1914 4.8125 20.3633 5.875 20.4102C6.94141 20.457 7.28125 20.4687 9.99609 20.4687C12.7109 20.4687 13.0508 20.457 14.1172 20.4102C15.1797 20.3633 15.9102 20.1914 16.543 19.9453C17.1992 19.6914 17.7578 19.3477 18.3125 18.793C18.8672 18.2383 19.2109 17.6797 19.4648 17.0234C19.7109 16.3867 19.8828 15.6602 19.9297 14.5977C19.9766 13.5312 19.9883 13.1914 19.9883 10.4766C19.9883 7.76172 19.9766 7.42187 19.9297 6.35547C19.8828 5.29297 19.7109 4.5625 19.4648 3.92969C19.2187 3.26562 18.8789 2.70703 18.3203 2.15234C17.7656 1.59766 17.207 1.25391 16.5508 1C15.9141 0.753906 15.1875 0.582031 14.125 0.535156C13.0547 0.484375 12.7148 0.472656 10 0.472656Z" fill="currentColor"/>
<path id="Vector_2" d="M10 5.33594C7.16406 5.33594 4.86328 7.63672 4.86328 10.4727C4.86328 13.3086 7.16406 15.6094 10 15.6094C12.8359 15.6094 15.1367 13.3086 15.1367 10.4727C15.1367 7.63672 12.8359 5.33594 10 5.33594ZM10 13.8047C8.16016 13.8047 6.66797 12.3125 6.66797 10.4727C6.66797 8.63281 8.16016 7.14062 10 7.14062C11.8398 7.14062 13.332 8.63281 13.332 10.4727C13.332 12.3125 11.8398 13.8047 10 13.8047Z" fill="currentColor"/>
<path id="Vector_3" d="M16.5391 5.13281C16.5391 5.79688 16 6.33204 15.3398 6.33204C14.6758 6.33204 14.1406 5.79297 14.1406 5.13281C14.1406 4.46875 14.6797 3.93359 15.3398 3.93359C16 3.93359 16.5391 4.47266 16.5391 5.13281Z" fill="currentColor"/>
</g>
</svg>
