<svg width="20" height="21" viewBox="0 0 20 21" fill="none" xmlns="http://www.w3.org/2000/svg">
<g clip-path="url(#clip0_1185_15763)">
<path d="M18.5236 0.316406H1.47639C1.08483 0.316406 0.709301 0.471954 0.432425 0.748831C0.155548 1.02571 0 1.40123 0 1.7928V18.84C0 19.2316 0.155548 19.6071 0.432425 19.884C0.709301 20.1609 1.08483 20.3164 1.47639 20.3164H18.5236C18.9152 20.3164 19.2907 20.1609 19.5676 19.884C19.8445 19.6071 20 19.2316 20 18.84V1.7928C20 1.40123 19.8445 1.02571 19.5676 0.748831C19.2907 0.471954 18.9152 0.316406 18.5236 0.316406ZM5.96111 17.3539H2.95417V7.80252H5.96111V17.3539ZM4.45556 6.47891C4.11447 6.47699 3.7816 6.37407 3.49895 6.18315C3.21629 5.99222 2.99653 5.72185 2.8674 5.40615C2.73826 5.09045 2.70554 4.74357 2.77336 4.40929C2.84118 4.075 3.0065 3.7683 3.24846 3.52789C3.49042 3.28748 3.79818 3.12413 4.13289 3.05846C4.4676 2.99278 4.81426 3.02773 5.12913 3.15889C5.44399 3.29005 5.71295 3.51155 5.90205 3.79542C6.09116 4.07929 6.19194 4.41282 6.19167 4.75391C6.19488 4.98227 6.15209 5.20894 6.06584 5.42041C5.97959 5.63188 5.85165 5.82382 5.68964 5.9848C5.52763 6.14577 5.33487 6.27247 5.12285 6.35737C4.91083 6.44226 4.68389 6.48359 4.45556 6.47891ZM17.0444 17.3622H14.0389V12.1442C14.0389 10.6053 13.3847 10.1303 12.5403 10.1303C11.6486 10.1303 10.7736 10.8025 10.7736 12.1831V17.3622H7.76667V7.80946H10.6583V9.13307H10.6972C10.9875 8.54557 12.0042 7.54141 13.5556 7.54141C15.2333 7.54141 17.0458 8.53724 17.0458 11.4539L17.0444 17.3622Z" fill="currentColor"/>
</g>
<defs>
<clipPath id="clip0_1185_15763">
<rect width="20" height="20" fill="currentColor" transform="translate(0 0.316406)"/>
</clipPath>
</defs>
</svg>
