<svg width="21" height="21" viewBox="0 0 21 21" fill="none" xmlns="http://www.w3.org/2000/svg">
<g id="Social icon" clip-path="url(#clip0_1185_182)">
<path id="Vector" d="M6.7896 18.5987C14.3368 18.5987 18.4648 12.3459 18.4648 6.9235C18.4648 6.7459 18.4648 6.5691 18.4528 6.3931C19.2559 5.81223 19.9491 5.093 20.5 4.2691C19.7512 4.6011 18.9567 4.81873 18.1432 4.9147C18.9998 4.40194 19.641 3.59535 19.9472 2.6451C19.1417 3.1231 18.2605 3.45995 17.3416 3.6411C16.7229 2.98324 15.9047 2.54763 15.0135 2.40167C14.1223 2.2557 13.2078 2.40753 12.4116 2.83364C11.6154 3.25976 10.9819 3.93641 10.609 4.75889C10.2361 5.58137 10.1446 6.50382 10.3488 7.3835C8.71741 7.30166 7.12146 6.87769 5.66455 6.1391C4.20763 5.40051 2.9223 4.36381 1.892 3.0963C1.36727 3.99963 1.20656 5.06899 1.44258 6.08665C1.67861 7.10431 2.29362 7.99376 3.1624 8.5739C2.50936 8.55476 1.87054 8.37859 1.3 8.0603V8.1123C1.30026 9.05967 1.62821 9.97779 2.22823 10.7109C2.82824 11.4441 3.66338 11.9471 4.592 12.1347C3.9879 12.2995 3.35406 12.3236 2.7392 12.2051C3.00151 13.0204 3.51202 13.7333 4.19937 14.2442C4.88671 14.7551 5.71652 15.0385 6.5728 15.0547C5.72203 15.7234 4.74776 16.2179 3.70573 16.5097C2.66369 16.8015 1.57435 16.8851 0.5 16.7555C2.37653 17.9597 4.55994 18.5984 6.7896 18.5955" fill="currentColor"/>
</g>
<defs>
<clipPath id="clip0_1185_182">
<rect width="20" height="20" fill="currentColor" transform="translate(0.5 0.472656)"/>
</clipPath>
</defs>
</svg>
