<svg width="20" height="15" viewBox="0 0 20 15" fill="none" xmlns="http://www.w3.org/2000/svg">
<g id="Lozenge">
<path id="Vector" d="M19.8008 3.47266C19.8008 3.47266 19.6055 2.09375 19.0039 1.48828C18.2422 0.691406 17.3906 0.6875 17 0.640625C14.2031 0.4375 10.0039 0.4375 10.0039 0.4375H9.99609C9.99609 0.4375 5.79688 0.4375 3 0.640625C2.60938 0.6875 1.75781 0.691406 0.996094 1.48828C0.394531 2.09375 0.203125 3.47266 0.203125 3.47266C0.203125 3.47266 0 5.09375 0 6.71094V8.22656C0 9.84375 0.199219 11.4648 0.199219 11.4648C0.199219 11.4648 0.394531 12.8438 0.992187 13.4492C1.75391 14.2461 2.75391 14.2188 3.19922 14.3047C4.80078 14.457 10 14.5039 10 14.5039C10 14.5039 14.2031 14.4961 17 14.2969C17.3906 14.25 18.2422 14.2461 19.0039 13.4492C19.6055 12.8438 19.8008 11.4648 19.8008 11.4648C19.8008 11.4648 20 9.84766 20 8.22656V6.71094C20 5.09375 19.8008 3.47266 19.8008 3.47266ZM7.93359 10.0664V4.44531L13.3359 7.26562L7.93359 10.0664Z" fill="currentColor"/>
</g>
</svg>
